# xmcd
# Copyright (C) 1995-1998 Ti Kan
#
# Track frame offsets:
#       150
#       11599
#       27527
#       38762
#       55765
#       66332
#       84278
#       93374
#       106198
#       118139
#       130254
#       144477
#
# Disc length: 2012 seconds
#
# Revision: 0
# Processed by: cddbd v1.5.2PL0 Copyright (c) Steve Scherf et al.
# Submitted via: CD-Transfer v1.0
#
DISCID=9c07da0c
DTITLE=Kristofferson, Kris - K. Kristofferson
DYEAR=09
DGENRE=
TTITLE0=Closer To The Bone
TTITLE1=From Here To Forever
TTITLE2=Holy Woman
TTITLE3=Starlight And Stone
TTITLE4=Sister Sinead
TTITLE5=Hall Of Angels
TTITLE6=Love Don't Leave Here Anymore
TTITLE7=Good Morning John
TTITLE8=Tell Me One More Time
TTITLE9=Let The Walls Come Down
TTITLE10=Wonder, The
TTITLE11=Outro 
EXTD=
EXTT0=
EXTT1=
EXTT2=
EXTT3=
EXTT4=
EXTT5=
EXTT6=
EXTT7=
EXTT8=
EXTT9=
EXTT10=
EXTT11=
PLAYORDER=
